<?xml version="1.0" encoding="UTF-8"?>
<svg width="22px" height="22px" viewBox="0 0 22 22" version="1.1" xmlns="http://www.w3.org/2000/svg" xmlns:xlink="http://www.w3.org/1999/xlink">
    <!-- Generator: Sketch 57.1 (83088) - https://sketch.com -->
    <title>首页 (3)备份</title>
    <desc>Created with Sketch.</desc>
    <g id="后台" stroke="none" stroke-width="1" fill="none" fill-rule="evenodd">
        <g id="首页-(3)备份" fill="#FFFFFF" fill-rule="nonzero">
            <path d="M11.0106539,2.00158952 C11.0106539,2.00158952 10.7842185,1.99134087 10.5774684,2.1348594 C10.3608756,2.28862657 2.24853428,9.26965983 2.24853428,9.26965983 C2.24853428,9.26965983 1.65782999,9.75145862 2.29776564,10.6023024 C2.9377013,11.4531461 3.64653563,10.6740616 3.64653563,10.6740616 L11.0008112,3.92880346 L18.4732169,10.7765668 C18.4732169,10.7765668 19.1328379,11.3506222 19.7432275,10.561289 C20.3536171,9.76170726 19.6841535,9.20813044 19.6841535,9.20813044 L17.4985404,7.33217847 L17.4985404,4.04155729 L14.5253336,4.04155729 L14.5253336,4.78989585 L11.4930528,2.16560533 C11.4930528,2.16560533 11.2961454,1.98109223 11.0106359,2.00158952 L11.0106539,2.00158952 Z" id="路径"></path>
            <polygon id="路径" points="11.0093396 5 4 10.965178 4 15.9908812 9.69333459 16 9.69333459 11.8863986 12.3066654 11.9137551 12.3066654 15.9908812 18 16 18 10.9742969"></polygon>
        </g>
    </g>
</svg>