<?xml version="1.0" encoding="UTF-8"?>
<svg width="22px" height="22px" viewBox="0 0 22 22" version="1.1" xmlns="http://www.w3.org/2000/svg" xmlns:xlink="http://www.w3.org/1999/xlink">
    <!-- Generator: Sketch 57.1 (83088) - https://sketch.com -->
    <title>退出 (2)备份</title>
    <desc>Created with Sketch.</desc>
    <g id="后台" stroke="none" stroke-width="1" fill="none" fill-rule="evenodd">
        <g id="退出-(2)备份" transform="translate(11.000000, 11.000000) scale(1, -1) translate(-11.000000, -11.000000) " fill="#FFFFFF" fill-rule="nonzero">
            <path d="M20.5994549,9.71640723 L14.6758324,4.34878793 C14.3072464,4.01602447 13.866769,3.91681549 13.4114569,4.0707961 C12.9447334,4.22994384 12.6777082,4.60817808 12.6765671,5.11042355 L12.6765671,7.53484305 L11.5171758,7.53484305 L8.18963136,7.53587648 C7.49125784,7.53794333 7.00399397,7.97714976 7.0017117,8.60547332 C6.99942943,9.87142127 6.99942943,11.1363358 7.0017117,12.4012503 C7.00399397,13.0099388 7.49696351,13.4553457 8.17479663,13.4615463 L12.6765671,13.4625797 L12.675426,13.9317555 C12.6731437,14.5900485 12.6708614,15.2462746 12.6856962,15.9035341 C12.6902607,16.1608574 12.8020917,16.440916 12.975544,16.6331335 C13.1877948,16.8697882 13.4787837,17 13.7948776,17 L13.7948776,17 C14.1075481,17 14.4225009,16.8708216 14.6815381,16.6372672 C16.6579808,14.8494386 18.6321412,13.0605767 20.6063017,11.2706813 C21.1335052,10.7942715 21.1312229,10.1979842 20.5994549,9.71640723 Z" id="路径"></path>
            <path d="M8.93264077,15.8662223 L8.93149602,15.8662223 L7.63335366,15.8683433 L5.77543032,15.8672828 C4.83673831,15.8672828 4.29756278,15.3677752 4.29756278,14.4970836 L4.29756278,7.49443224 C4.29756278,6.62586168 4.83673831,6.12741459 5.77771982,6.12741459 L7.00832215,6.12635406 L8.36026759,6.12741459 L9.11236595,6.12635406 C9.65039674,6.12635406 9.94459655,5.87606999 9.98695216,5.38398606 C10.0029786,5.20051511 9.99839963,5.01386259 9.99153115,4.80599955 C9.97779419,4.28740247 9.66413369,4.00106053 9.1112212,4 L7.7455388,4 C7.01404588,4 6.28255296,4 5.55220478,4.0042421 C5.3278345,4.00530263 5.09774048,4.02863419 4.86764646,4.0742368 C3.21806697,4.3998182 2.0137938,5.77001742 2.00463583,7.33217181 C2,8.17422923 2.00120159,9.01734717 2.00234634,9.85834406 L2.00349108,10.9793197 L2.00120159,12.1554428 C2,13.0006818 1.99776735,13.8448602 2.00578058,14.6911598 C2.02180703,16.4770851 3.59354377,17.9565184 5.50984917,17.9893947 C5.98148467,17.9978789 6.45426491,18 6.92590041,18 L9.16845852,17.9957579 C9.61147536,17.9957579 9.92170162,17.7465344 9.97664945,17.3456556 C9.99611013,17.1993031 9.99839963,17.049769 9.99954437,16.9002348 L9.99954437,16.825998 C10.0018339,16.6054087 10.0041234,16.3031589 9.77517409,16.0889327 C9.55423804,15.8842512 9.23599856,15.8662223 8.93264077,15.8662223 Z" id="路径"></path>
        </g>
    </g>
</svg>